<svg xmlns="http://www.w3.org/2000/svg" width="300" height="300"><path fill="#333" d="M86.759 290.262L6.918 190.144 35.413 65.299l115.373-55.56 115.374 55.56 28.493 124.845-79.839 100.118z"/><path fill="#FFF" d="M204.617 189.894c-3.339 14.54-9.699 25.712-19.083 33.52-9.662 7.733-21.095 11.602-34.301 11.602-11.948-.289-21.914-3.299-29.899-9.039-8.127-5.521-14.03-11.906-17.71-19.152a174.185 174.185 0 0 1-3.021-6.777c-.834-2.224-1.53-5.022-2.085-8.395-1.042-6.31-1.562-18.434-1.562-36.367 0-18.221.522-30.414 1.564-36.583 1.111-6.171 2.812-11.155 5.105-14.958 3.683-7.245 9.589-13.7 17.719-19.369 7.989-5.738 17.961-8.677 29.912-8.822 14.66.145 26.61 4.622 35.852 13.429 9.24 8.883 15.076 19.875 17.51 32.984H180.19c-1.88-6.327-5.29-11.718-10.229-16.174-5.151-4.24-11.414-6.433-18.788-6.576-5.428.143-10.092 1.255-13.989 3.34-3.967 2.16-7.168 4.853-9.602 8.088-2.994 3.379-4.976 7.727-5.951 13.048-1.113 5.605-1.669 16.137-1.669 31.592 0 15.456.556 25.913 1.672 31.376.973 5.465 2.957 9.884 5.951 13.264 2.437 3.235 5.64 5.859 9.608 7.872 3.898 2.372 8.563 3.556 13.994 3.556 12.949 0 22.626-7.149 29.032-21.458h24.398z"/></svg>